# xmcd
#
# Track frame offsets:
#  150
#  20190
#  39652
#  64314
#  84050
#  108729
#  139298
#  160276
#  201311
#  224919
#
# Disc length: 3272 seconds
#
# Revision: 0
# Processed by: cddbd v1.5.1PL2 Copyright (c) Steve Scherf et al.
# Submitted via: Collectorz.com_Music_Collector 6.11
#
DISCID=9e0cc60a
DTITLE=Hutto, J.B. - High and Lonesome
DYEAR=1992
DGENRE=Blues
TTITLE0=High and Lonesome
TTITLE1=J.B.'s Boogie
TTITLE2=Feel So Good
TTITLE3=Too Much Alcohol
TTITLE4=Hide And Seek
TTITLE5=Laundromat Blues
TTITLE6=Coo Coo Baby
TTITLE7=Walking The Dog
TTITLE8=Come Back Baby
TTITLE9=Kansas City
EXTD=
EXTT0=
EXTT1=
EXTT2=
EXTT3=
EXTT4=
EXTT5=
EXTT6=
EXTT7=
EXTT8=
EXTT9=
PLAYORDER=
